<svg width="148" height="119" viewBox="0 0 148 119" fill="none" xmlns="http://www.w3.org/2000/svg">
<path d="M139.653 93.6787C138.761 93.1734 137.444 92.4281 135.7 91.6174C133.961 90.7974 131.805 89.8854 129.275 88.98C127.332 88.284 125.164 87.5987 122.807 86.9587V61.3094C114.112 53.5467 108.476 48.516 104.648 45.0987H104.481V83.828C102.409 83.664 100.287 83.552 98.1226 83.5094C97.5853 83.4934 97.0413 83.5 96.4999 83.4947V47.452C83.3586 35.7187 74.8386 28.1134 69.0533 22.9481H68.8026V86.6254C67.7586 86.8654 66.7199 87.1161 65.6906 87.3881L64.0839 87.7947L62.5706 88.1907C62.0519 88.3281 61.5346 88.4667 61.0186 88.6054C60.9293 88.6281 60.8493 88.6454 60.7613 88.6667V36.2094C41.6479 19.1454 29.2573 8.08272 20.8453 0.572049H20.4786V89.6987C19.7293 89.4814 18.9986 89.2574 18.3066 89.0187C15.8773 88.2054 13.8177 87.2854 12.1473 86.4481C10.4806 85.6041 9.18741 84.8601 8.33061 84.3161C7.46607 83.7787 7.00781 83.476 7.00781 83.476C7.00781 83.476 7.09528 83.5814 7.26554 83.7827C7.43594 83.9854 7.68741 84.2921 8.03901 84.6654C8.74115 85.4147 9.78114 86.5241 11.2707 87.7694C12.7515 89.0241 14.6693 90.436 17.0466 91.792C18.2279 92.4854 19.5386 93.1267 20.9399 93.7681C22.3493 94.4014 23.8706 94.968 25.4786 95.5134C28.7066 96.5534 32.3186 97.3721 36.1839 97.8187C40.0466 98.2534 44.1573 98.3867 48.3706 98.128C50.4773 98.008 52.6119 97.7921 54.7546 97.4987C55.2933 97.4241 55.8306 97.3507 56.3679 97.2774C56.9066 97.1947 57.4426 97.1054 57.9813 97.0107C58.5186 96.9147 59.0586 96.8187 59.5999 96.7227C60.1439 96.6121 60.6906 96.5001 61.2373 96.3881C61.7813 96.2734 62.3439 96.164 62.8719 96.0454C63.3933 95.924 63.9146 95.8041 64.4359 95.6827C64.9719 95.5547 65.5106 95.4294 66.0453 95.3014L67.5746 94.9321C68.5959 94.6947 69.6106 94.4187 70.6399 94.212L73.7279 93.5547C75.7906 93.1521 77.8533 92.7294 79.9239 92.4174C80.9586 92.2507 81.9866 92.0667 83.0199 91.9294C84.0533 91.7894 85.0786 91.6121 86.1053 91.5014C87.1346 91.3801 88.1573 91.2601 89.1773 91.1387C90.1973 91.0374 91.2119 90.9361 92.2226 90.8361C94.2466 90.6747 96.2479 90.5241 98.2186 90.4241C102.163 90.2294 105.987 90.1734 109.62 90.2574C113.252 90.3361 116.693 90.5414 119.868 90.8321C126.221 91.4054 131.512 92.316 135.203 93.0947C137.047 93.492 138.503 93.8214 139.484 94.0907C140.468 94.3507 140.992 94.5081 140.992 94.5081C140.992 94.5081 140.544 94.1934 139.653 93.6787Z" fill="#82C882"/>
<path d="M1.152 107.672H4.544L9.36 115.544H9.392V107.672H11.888V119H8.624L3.68 110.936H3.648V119H1.152V107.672ZM19.0293 107.672H26.7253V109.976H21.5253V112.088H26.4373V114.392H21.5253V116.696H27.0133V119H19.0293V107.672ZM33.8418 107.672H36.3378V112.376L40.7378 107.672H44.0018L38.9618 112.936L44.4338 119H40.9458L36.3378 113.624V119H33.8418V107.672ZM50.027 107.672H54.411C54.987 107.672 55.531 107.731 56.043 107.848C56.5657 107.955 57.019 108.141 57.403 108.408C57.7977 108.664 58.107 109.016 58.331 109.464C58.5657 109.901 58.683 110.451 58.683 111.112C58.683 111.912 58.475 112.595 58.059 113.16C57.643 113.715 57.035 114.067 56.235 114.216L59.115 119H56.123L53.755 114.472H52.523V119H50.027V107.672ZM52.523 112.36H53.995C54.219 112.36 54.4537 112.355 54.699 112.344C54.955 112.323 55.1843 112.275 55.387 112.2C55.5897 112.115 55.755 111.987 55.883 111.816C56.0217 111.645 56.091 111.405 56.091 111.096C56.091 110.808 56.0323 110.579 55.915 110.408C55.7977 110.237 55.6483 110.109 55.467 110.024C55.2857 109.928 55.0777 109.864 54.843 109.832C54.6083 109.8 54.379 109.784 54.155 109.784H52.523V112.36ZM65.2324 107.672H72.9284V109.976H67.7284V112.088H72.6404V114.392H67.7284V116.696H73.2164V119H65.2324V107.672ZM82.1409 109.88H78.9089V107.672H87.8689V109.88H84.6369V119H82.1409V109.88ZM93.8708 107.672H97.2628L102.079 115.544H102.111V107.672H104.607V119H101.343L96.3988 110.936H96.3668V119H93.8708V107.672ZM111.62 107.672H114.116V119H111.62V107.672ZM121.121 107.672H124.513L129.329 115.544H129.361V107.672H131.857V119H128.593L123.649 110.936H123.617V119H121.121V107.672ZM138.998 107.672H146.694V109.976H141.494V112.088H146.406V114.392H141.494V116.696H146.982V119H138.998V107.672Z" fill="#1A1B1D"/>
</svg>
